<svg id="Lager_1" data-name="Lager 1" xmlns="http://www.w3.org/2000/svg" viewBox="0 0 300 300"><title>Kafka</title><path d="M192.62,162.93a31.19,31.19,0,0,0-23.46,10.66l-14.7-10.41a39.75,39.75,0,0,0,.08-27.26l14.67-10.29a31.18,31.18,0,1,0-6.57-11.8L148,124.13a40.4,40.4,0,0,0-25-14.54V91.9a31.32,31.32,0,1,0-13.43-.14v17.92a40.36,40.36,0,0,0,.28,79.57v18.92a31.29,31.29,0,1,0,13.43,0V189.25a40.47,40.47,0,0,0,24.6-14.31l14.8,10.48a31.27,31.27,0,1,0,30-22.49Zm0-73.16a15.17,15.17,0,1,1-15.17,15.17A15.19,15.19,0,0,1,192.62,89.77ZM101.33,61.29A15.17,15.17,0,1,1,116.5,76.46,15.19,15.19,0,0,1,101.33,61.29Zm30.34,177.42a15.17,15.17,0,1,1-15.17-15.17A15.18,15.18,0,0,1,131.67,238.71ZM116.5,170.6a21.16,21.16,0,1,1,21.16-21.16A21.18,21.18,0,0,1,116.5,170.6Zm76.12,38.79a15.17,15.17,0,1,1,15.17-15.17A15.19,15.19,0,0,1,192.62,209.39Z"/></svg>